<svg width="100%" height="100%" viewBox="0 0 28 28" fill="none" xmlns="http://www.w3.org/2000/svg">
<path fill-rule="evenodd" clip-rule="evenodd" d="M23.9604 11.8796V9.5784C23.9604 5.73554 19.5608 3.30615 14.1335 3.30615C8.70574 3.30615 4.30615 5.73554 4.30615 9.5784V11.8796H23.9604Z" stroke="black" stroke-width="1.6" stroke-linejoin="round"/>
<path d="M4.30615 15.4141C5.53391 15.4141 5.53391 16.5932 6.76207 16.5932C7.98983 16.5932 7.98983 15.4141 9.21799 15.4141C10.4457 15.4141 10.4457 16.5932 11.6735 16.5932C12.9021 16.5932 12.9021 15.4141 14.1302 15.4141C15.3576 15.4141 15.3576 16.5932 16.5849 16.5932C17.8139 16.5932 17.8139 15.4141 19.0425 15.4141C20.2719 15.4141 20.2719 16.5932 21.5013 16.5932C22.7311 16.5932 22.7311 15.4141 23.9604 15.4141" stroke="black" stroke-width="1.6" stroke-linecap="square" stroke-linejoin="round"/>
<path d="M14.1335 20.4414H4.30615V22.4088C4.30615 23.4949 5.18738 24.3761 6.2735 24.3761H14.1335H21.9931C23.0796 24.3761 23.9604 23.4949 23.9604 22.4088V20.4414H14.1335" stroke="black" stroke-width="1.6" stroke-linejoin="round"/>
<path fill-rule="evenodd" clip-rule="evenodd" d="M9.6 8.8C9.6 9.24175 9.24175 9.6 8.8 9.6C8.35825 9.6 8 9.24175 8 8.8C8 8.35775 8.35825 8 8.8 8C9.24175 8 9.6 8.35775 9.6 8.8Z" fill="black"/>
<path fill-rule="evenodd" clip-rule="evenodd" d="M15.6 8.8C15.6 9.24175 15.2418 9.6 14.8 9.6C14.3582 9.6 14 9.24175 14 8.8C14 8.35775 14.3582 8 14.8 8C15.2418 8 15.6 8.35775 15.6 8.8Z" fill="black"/>
<path fill-rule="evenodd" clip-rule="evenodd" d="M12.6 6.8C12.6 7.24175 12.2418 7.6 11.8 7.6C11.3582 7.6 11 7.24175 11 6.8C11 6.35775 11.3582 6 11.8 6C12.2418 6 12.6 6.35775 12.6 6.8Z" fill="black"/>
<path fill-rule="evenodd" clip-rule="evenodd" d="M17.6 6.8C17.6 7.24175 17.2418 7.6 16.8 7.6C16.3582 7.6 16 7.24175 16 6.8C16 6.35775 16.3582 6 16.8 6C17.2418 6 17.6 6.35775 17.6 6.8Z" fill="black"/>
<path fill-rule="evenodd" clip-rule="evenodd" d="M20.6 8.8C20.6 9.24175 20.2418 9.6 19.8 9.6C19.3582 9.6 19 9.24175 19 8.8C19 8.35775 19.3582 8 19.8 8C20.2418 8 20.6 8.35775 20.6 8.8Z" fill="black"/>
</svg>
