<svg width="100%" height="100%" viewBox="0 0 28 28" fill="none" xmlns="http://www.w3.org/2000/svg">
<path fill-rule="evenodd" clip-rule="evenodd" d="M23.9997 13.9949C23.9997 19.5185 19.5224 23.9948 13.9998 23.9948C8.47621 23.9948 4 19.5185 4 13.9949C4 8.47231 8.47621 3.99609 13.9998 3.99609C19.5224 3.99609 23.9997 8.47231 23.9997 13.9949Z" stroke="black" stroke-width="1.6"/>
<path fill-rule="evenodd" clip-rule="evenodd" d="M17.9687 13.9949C17.9687 19.5185 13.998 23.9948 13.998 23.9948C13.998 23.9948 10.0273 19.5185 10.0273 13.9949C10.0273 8.47231 13.998 3.99609 13.998 3.99609C13.998 3.99609 17.9687 8.47231 17.9687 13.9949Z" stroke="black" stroke-width="1.6" stroke-linejoin="round"/>
<path d="M4.42188 10.9264H23.5729" stroke="black" stroke-width="1.6"/>
<path d="M4.42188 17.067H23.5729" stroke="black" stroke-width="1.6"/>
</svg>
